<?xml version="1.0" standalone="no"?>
<!DOCTYPE svg PUBLIC "-//W3C//DTD SVG 20010904//EN"
 "http://www.w3.org/TR/2001/REC-SVG-20010904/DTD/svg10.dtd">
<svg version="1.0" xmlns="http://www.w3.org/2000/svg"
 width="512.000000pt" height="512.000000pt" viewBox="0 0 512.000000 512.000000"
 preserveAspectRatio="xMidYMid meet">

<g transform="translate(0.000000,512.000000) scale(0.100000,-0.100000)"
fill="#fff" stroke="none">
<path d="M3735 4810 c-27 -11 -61 -49 -74 -83 -7 -18 -11 -135 -11 -310 0
-323 3 -336 78 -372 l41 -20 0 -180 c1 -157 -2 -185 -19 -223 -18 -40 -245
-312 -260 -312 -4 0 -28 31 -53 69 l-46 70 33 33 c42 42 50 92 44 283 -4 150
-13 174 -79 207 -31 16 -80 18 -572 18 l-538 0 -24 -25 c-32 -31 -32 -69 0
-100 l24 -25 521 0 520 0 0 -125 0 -125 -835 0 -835 0 0 125 0 125 168 0 c163
0 169 1 190 23 31 33 29 80 -4 106 -25 20 -40 21 -213 21 -283 0 -291 -7 -291
-272 0 -178 5 -205 46 -243 l27 -25 -50 -76 -50 -76 -8 49 c-15 103 -66 281
-100 351 -88 178 -273 297 -496 319 l-76 8 58 105 c73 130 76 166 19 195 -50
26 -81 6 -130 -86 -24 -44 -46 -76 -50 -72 -4 4 -19 66 -33 137 -33 156 -43
176 -96 176 -37 0 -61 -16 -73 -51 -3 -8 7 -78 23 -155 15 -76 28 -142 29
-147 0 -4 -34 20 -76 53 -46 36 -86 60 -101 60 -33 0 -73 -42 -73 -78 0 -32
26 -59 138 -145 34 -27 62 -51 62 -55 0 -4 -28 -22 -63 -39 -133 -66 -248
-194 -297 -334 -34 -98 -38 -236 -11 -379 18 -96 45 -209 67 -281 4 -13 -6
-17 -52 -23 -70 -8 -110 -35 -124 -84 -7 -24 -10 -118 -8 -259 l3 -223 33 -32
c32 -33 33 -33 149 -38 l118 -5 31 -170 c17 -93 34 -178 38 -187 4 -9 21 -21
38 -27 38 -14 85 9 94 44 3 14 -5 92 -20 174 -14 82 -26 154 -26 160 0 8 550
11 2100 11 1673 0 2100 -3 2100 -12 0 -7 -60 -357 -134 -778 -89 -510 -140
-781 -154 -812 -29 -65 -100 -139 -169 -174 l-58 -29 -1565 -3 c-1712 -2
-1606 -6 -1701 54 -54 33 -116 110 -137 168 -11 28 -54 251 -96 496 -43 245
-84 455 -92 467 -29 45 -103 39 -125 -10 -9 -19 6 -119 70 -493 74 -423 85
-476 116 -542 43 -90 133 -187 214 -231 122 -65 19 -61 1731 -61 1712 0 1609
-4 1731 61 82 44 171 141 214 231 37 79 21 -2 223 1163 l87 500 117 5 c117 5
118 5 150 38 l33 32 3 229 c3 262 -2 289 -62 317 l-34 17 -4 121 c-4 163 -16
187 -196 394 -78 89 -150 177 -159 195 -15 26 -18 65 -21 219 l-4 186 46 20
c85 38 86 43 86 382 0 331 -3 345 -71 382 -31 17 -66 18 -489 17 -250 0 -464
-4 -475 -9z m885 -385 l0 -245 -410 0 -410 0 0 245 0 245 410 0 410 0 0 -245z
m-130 -564 c0 -184 8 -246 41 -315 11 -25 86 -121 166 -213 81 -93 152 -182
159 -200 9 -20 14 -70 14 -128 l0 -95 -665 0 -665 0 0 93 c0 68 5 102 19 132
10 22 80 110 154 195 88 100 148 178 169 220 l33 65 3 207 4 208 284 0 284 0
0 -169z m-3551 -6 c132 -31 236 -116 296 -239 53 -111 104 -377 118 -624 l5
-82 -506 2 -507 3 -32 117 c-45 167 -66 305 -61 397 11 184 143 339 346 405
42 14 88 27 102 29 59 10 180 6 239 -8z m2362 -542 l84 -126 3 -139 4 -138
-100 0 -100 0 -4 111 -3 111 -37 34 -38 34 -631 0 -631 0 -34 -34 -34 -34 0
-111 0 -111 -100 0 -100 0 0 139 0 139 83 126 82 126 736 0 736 0 84 -127z
m-261 -333 l0 -70 -555 0 -555 0 0 70 0 70 555 0 555 0 0 -70z m518 -230
l1412 0 0 -165 0 -165 -2410 0 -2410 0 0 172 0 171 998 -6 c548 -4 1633 -7
2410 -7z"/>
<path d="M541 3515 c-58 -13 -115 -28 -128 -34 -45 -21 -41 -105 7 -128 35
-16 265 30 298 60 30 27 29 71 -3 102 -29 30 -40 30 -174 0z"/>
<path d="M1027 3244 c-126 -28 -145 -36 -153 -69 -10 -41 4 -75 37 -89 26 -11
48 -9 152 11 138 28 167 45 167 99 0 23 -8 38 -26 53 -33 26 -42 25 -177 -5z"/>
<path d="M1050 1920 c-11 -11 -20 -33 -20 -51 0 -53 191 -1033 206 -1056 29
-45 103 -39 125 10 9 20 -9 127 -90 553 -87 459 -103 531 -122 547 -28 23 -74
22 -99 -3z"/>
<path d="M1990 1920 c-13 -13 -20 -33 -20 -57 0 -21 18 -261 41 -533 29 -353
45 -501 55 -517 29 -45 103 -39 125 11 8 18 0 150 -33 551 -43 512 -45 528
-67 546 -30 25 -76 24 -101 -1z"/>
<path d="M3029 1921 c-22 -18 -24 -34 -67 -546 -33 -401 -41 -533 -33 -551 22
-50 96 -56 125 -11 10 16 26 164 55 517 23 272 41 512 41 533 0 68 -68 101
-121 58z"/>
<path d="M3971 1923 c-19 -16 -35 -88 -122 -547 -81 -426 -99 -533 -90 -553
22 -49 96 -55 125 -10 15 23 206 1003 206 1056 0 61 -71 93 -119 54z"/>
</g>
</svg>
