<?xml version="1.0" standalone="no"?>
<!DOCTYPE svg PUBLIC "-//W3C//DTD SVG 20010904//EN"
 "http://www.w3.org/TR/2001/REC-SVG-20010904/DTD/svg10.dtd">
<svg version="1.0" xmlns="http://www.w3.org/2000/svg"
 width="300.000000pt" height="600.000000pt" viewBox="0 0 300.000000 600.000000"
 preserveAspectRatio="xMidYMid meet">

<g transform="translate(0.000000,600.000000) scale(0.100000,-0.100000)"
fill="#000000" stroke="none">
<path d="M1443 5985 c-41 -18 -99 -105 -115 -173 -7 -29 -16 -52 -19 -52 -4 0
-26 9 -50 20 -76 34 -151 23 -169 -24 -12 -32 6 -162 35 -254 14 -42 25 -80
25 -84 0 -5 -20 -8 -44 -8 -143 0 -150 -66 -26 -254 38 -58 66 -107 62 -109
-4 -3 -21 -8 -39 -12 -31 -6 -93 -64 -93 -86 0 -29 44 -77 127 -139 132 -100
228 -244 259 -389 14 -69 19 -241 7 -240 -5 0 -25 20 -45 45 -21 25 -69 73
-108 107 -90 79 -112 111 -151 222 -57 162 -112 248 -169 260 -40 9 -64 -7
-90 -60 l-22 -45 -40 36 c-49 44 -112 73 -157 74 -27 0 -42 -8 -72 -40 -39
-40 -39 -41 -69 -25 -44 23 -123 30 -160 15 -38 -16 -50 -37 -51 -92 0 -43 0
-43 -62 -73 -72 -35 -112 -84 -102 -125 14 -56 99 -130 150 -130 20 0 19 -5
-5 -38 -11 -15 -23 -43 -26 -62 -5 -29 -1 -39 21 -60 24 -23 34 -25 118 -25
51 0 110 4 132 8 l40 8 0 -44 c0 -58 17 -77 70 -77 49 0 105 21 152 56 38 29
43 29 43 7 0 -10 9 -33 20 -50 16 -28 26 -33 57 -33 33 0 45 8 120 86 82 85
84 86 120 79 54 -10 87 -30 122 -72 56 -67 101 -256 101 -425 l0 -57 -37 -6
c-198 -32 -285 -68 -361 -149 -58 -61 -99 -141 -128 -251 -16 -59 -19 -104
-18 -285 1 -199 4 -236 43 -495 113 -755 209 -1248 356 -1820 139 -545 214
-683 339 -631 92 38 167 223 282 696 173 706 330 1589 373 2095 23 267 -17
506 -107 637 -89 130 -159 165 -406 203 l-39 6 6 127 c10 257 86 405 218 427
41 7 41 7 118 -73 77 -82 109 -100 155 -88 17 4 29 19 41 51 l18 45 28 -20
c79 -57 191 -79 220 -43 8 9 14 36 13 60 -1 43 0 45 25 39 45 -11 198 -19 225
-12 64 16 82 71 46 139 -11 20 -20 39 -20 41 0 3 14 8 31 11 39 9 114 76 127
113 5 15 6 36 2 48 -14 35 -69 83 -118 100 l-47 17 0 49 c0 43 -4 53 -29 75
-27 23 -36 25 -91 21 -33 -3 -76 -13 -94 -22 l-33 -17 -31 36 c-44 49 -87 55
-159 23 -29 -14 -67 -39 -85 -56 -17 -18 -34 -32 -36 -32 -3 0 -8 11 -11 24
-9 37 -55 86 -80 86 -62 0 -132 -88 -182 -228 -44 -125 -64 -161 -118 -210
-28 -26 -88 -85 -135 -132 l-84 -85 7 112 c8 131 24 200 65 281 53 104 114
176 219 255 115 87 134 118 106 166 -18 30 -67 61 -96 61 -31 0 -25 15 41 114
126 186 119 256 -25 256 -24 0 -44 3 -44 8 0 4 11 41 24 83 32 99 51 232 36
259 -24 45 -88 52 -172 20 -28 -11 -52 -19 -53 -17 -1 1 -9 27 -18 58 -20 67
-65 132 -110 159 -38 23 -51 24 -94 5z"/>
</g>
</svg>
