<?xml version="1.0" standalone="no"?>
<!DOCTYPE svg PUBLIC "-//W3C//DTD SVG 20010904//EN"
 "http://www.w3.org/TR/2001/REC-SVG-20010904/DTD/svg10.dtd">
<svg version="1.0" xmlns="http://www.w3.org/2000/svg"
 width="512.000000pt" height="512.000000pt" viewBox="0 0 512.000000 512.000000"
 preserveAspectRatio="xMidYMid meet">

<g transform="translate(0.000000,512.000000) scale(0.100000,-0.100000)"
fill="#fff" stroke="none">
<path d="M2396 5110 c-260 -41 -488 -158 -672 -345 -159 -162 -266 -364 -316
-600 -17 -82 -17 -342 1 -430 47 -236 156 -440 326 -610 170 -170 374 -279
610 -326 88 -18 349 -18 430 -1 435 93 767 387 898 797 45 138 52 191 51 365
-1 143 -4 178 -26 261 -62 230 -157 400 -312 555 -218 217 -483 331 -791 339
-77 2 -167 0 -199 -5z m363 -225 c474 -99 807 -558 752 -1034 -27 -229 -117
-418 -276 -576 -375 -376 -975 -376 -1350 0 -376 375 -376 976 0 1350 229 229
557 327 874 260z"/>
<path d="M2330 2544 c-352 -43 -612 -121 -898 -270 -592 -307 -1031 -841
-1222 -1484 -44 -149 -77 -342 -90 -523 -14 -181 -7 -217 44 -248 40 -24 73
-24 113 1 41 25 49 58 57 225 20 460 209 931 524 1306 276 328 678 588 1087
703 683 191 1396 58 1958 -365 521 -392 856 -1016 883 -1649 8 -162 16 -196
57 -220 39 -24 68 -25 108 -4 64 33 71 122 33 414 -105 805 -608 1503 -1344
1869 -151 75 -363 153 -505 187 -188 44 -288 55 -530 59 -132 1 -256 1 -275
-1z"/>
</g>
</svg>
