<?xml version="1.0" encoding="utf-8"?>
<!-- Generator: Adobe Illustrator 25.1.0, SVG Export Plug-In . SVG Version: 6.00 Build 0)  -->
<svg version="1.1" id="Camada_1" xmlns="http://www.w3.org/2000/svg" xmlns:xlink="http://www.w3.org/1999/xlink" x="0px" y="0px"
	 viewBox="0 0 128 128" style="enable-background:new 0 0 128 128;" xml:space="preserve">
<style type="text/css">
	.st0{fill:#FFA500;}
</style>
<path class="st0" d="M11.44,122.33c0-39,0-77.99,0-116.99c20.12,0,40.25,0,60.37,0c-5.05,7.29-10.1,14.58-15.15,21.88
	c-7.89,0-15.78,0-23.67,0c0,8.44,0,16.89,0,25.33c7.93,0,15.85,0,23.78,0c4.93,7.2,9.85,14.39,14.78,21.59c-12.85,0-25.7,0-38.56,0
	c0,16.06,0,32.12,0,48.19C25.81,122.33,18.63,122.33,11.44,122.33z"/>
<path class="st0" d="M118.11,122.28c0-38.98,0-77.96,0-116.93c-14.72,0-29.44,0-44.17,0c-4.99,7.29-9.98,14.58-14.97,21.88
	c13.05,0,26.09,0,39.14,0c0,8.44,0,16.89,0,25.33c-12.96,0-25.93,0-38.89,0c4.89,7.18,9.78,14.37,14.67,21.55
	c8.07,0.01,16.15,0.02,24.22,0.04c0,16.06,0,32.12,0,48.19C104.78,122.31,111.44,122.3,118.11,122.28z"/>
</svg>
